<svg width="48" height="48" viewBox="0 0 48 48" fill="none" xmlns="http://www.w3.org/2000/svg">
<rect width="48" height="48" rx="12" fill="#38BDF8" fill-opacity="0.12549"/>
<path d="M14.9922 28.3419C15.1392 28.7129 15.172 29.1193 15.0862 29.5089L14.0212 32.7989C13.9869 32.9658 13.9957 33.1386 14.047 33.3011C14.0982 33.4635 14.19 33.6102 14.3138 33.7272C14.4377 33.8442 14.5893 33.9276 14.7544 33.9696C14.9195 34.0115 15.0925 34.0106 15.2572 33.9669L18.6702 32.9689C19.0379 32.896 19.4187 32.9279 19.7692 33.0609C21.9046 34.0582 24.3235 34.2691 26.5993 33.6567C28.8751 33.0442 30.8614 31.6476 32.2079 29.7133C33.5543 27.779 34.1743 25.4313 33.9585 23.0845C33.7427 20.7376 32.7049 18.5424 31.0282 16.8861C29.3516 15.2299 27.1439 14.219 24.7946 14.0318C22.4452 13.8447 20.1053 14.4933 18.1876 15.8633C16.2699 17.2332 14.8977 19.2365 14.3131 21.5196C13.7284 23.8027 13.9689 26.2189 14.9922 28.3419Z" stroke="#38BDF8" stroke-width="2" stroke-linecap="round" stroke-linejoin="round"/>
</svg>
