<svg width="16" height="16" viewBox="0 0 16 16" fill="none" xmlns="http://www.w3.org/2000/svg">
<path d="M12.6668 11.3333H14.0002C14.4002 11.3333 14.6668 11.0667 14.6668 10.6667V8.66667C14.6668 8.06667 14.2002 7.53334 13.6668 7.40001C12.4668 7.06667 10.6668 6.66667 10.6668 6.66667C10.6668 6.66667 9.80016 5.73334 9.20016 5.13334C8.86683 4.86667 8.46683 4.66667 8.00016 4.66667H3.3335C2.9335 4.66667 2.60016 4.93334 2.40016 5.26667L1.46683 7.20001C1.37855 7.45749 1.3335 7.72781 1.3335 8.00001V10.6667C1.3335 11.0667 1.60016 11.3333 2.00016 11.3333H3.3335" stroke="#037FFE" stroke-width="1.33333" stroke-linecap="round" stroke-linejoin="round"/>
<path d="M4.66683 12.6667C5.40321 12.6667 6.00016 12.0697 6.00016 11.3333C6.00016 10.597 5.40321 10 4.66683 10C3.93045 10 3.3335 10.597 3.3335 11.3333C3.3335 12.0697 3.93045 12.6667 4.66683 12.6667Z" stroke="#037FFE" stroke-width="1.33333" stroke-linecap="round" stroke-linejoin="round"/>
<path d="M6 11.3333H10" stroke="#037FFE" stroke-width="1.33333" stroke-linecap="round" stroke-linejoin="round"/>
<path d="M11.3333 12.6667C12.0697 12.6667 12.6667 12.0697 12.6667 11.3333C12.6667 10.597 12.0697 10 11.3333 10C10.597 10 10 10.597 10 11.3333C10 12.0697 10.597 12.6667 11.3333 12.6667Z" stroke="#037FFE" stroke-width="1.33333" stroke-linecap="round" stroke-linejoin="round"/>
</svg>
