<svg width="48" height="48" viewBox="0 0 48 48" fill="none" xmlns="http://www.w3.org/2000/svg">
<rect width="48" height="48" rx="12" fill="#4ADE80" fill-opacity="0.12549"/>
<path d="M22 26.6599V28.2859C21.9962 28.6285 21.9045 28.9644 21.7336 29.2614C21.5627 29.5584 21.3183 29.8065 21.024 29.9819C20.3991 30.4447 19.8908 31.0469 19.5395 31.7406C19.1881 32.4343 19.0034 33.2003 19 33.9779" stroke="#4ADE80" stroke-width="2" stroke-linecap="round" stroke-linejoin="round"/>
<path d="M26 26.6599V28.2859C26.0038 28.6285 26.0955 28.9644 26.2664 29.2614C26.4373 29.5584 26.6817 29.8065 26.976 29.9819C27.6009 30.4447 28.1092 31.0469 28.4605 31.7406C28.8119 32.4343 28.9966 33.2003 29 33.9779" stroke="#4ADE80" stroke-width="2" stroke-linecap="round" stroke-linejoin="round"/>
<path d="M30 21H31.5C32.163 21 32.7989 20.7366 33.2678 20.2678C33.7366 19.7989 34 19.163 34 18.5C34 17.837 33.7366 17.2011 33.2678 16.7322C32.7989 16.2634 32.163 16 31.5 16H30" stroke="#4ADE80" stroke-width="2" stroke-linecap="round" stroke-linejoin="round"/>
<path d="M16 34H32" stroke="#4ADE80" stroke-width="2" stroke-linecap="round" stroke-linejoin="round"/>
<path d="M18 21C18 22.5913 18.6321 24.1174 19.7574 25.2426C20.8826 26.3679 22.4087 27 24 27C25.5913 27 27.1174 26.3679 28.2426 25.2426C29.3679 24.1174 30 22.5913 30 21V15C30 14.7348 29.8946 14.4804 29.7071 14.2929C29.5196 14.1054 29.2652 14 29 14H19C18.7348 14 18.4804 14.1054 18.2929 14.2929C18.1054 14.4804 18 14.7348 18 15V21Z" stroke="#4ADE80" stroke-width="2" stroke-linecap="round" stroke-linejoin="round"/>
<path d="M18 21H16.5C15.837 21 15.2011 20.7366 14.7322 20.2678C14.2634 19.7989 14 19.163 14 18.5C14 17.837 14.2634 17.2011 14.7322 16.7322C15.2011 16.2634 15.837 16 16.5 16H18" stroke="#4ADE80" stroke-width="2" stroke-linecap="round" stroke-linejoin="round"/>
</svg>
